<svg xmlns="http://www.w3.org/2000/svg" viewBox="-60 -60 120 120">
<ellipse cx="0" cy="0" rx="19.8" ry="12.6" fill="#ff00ff" fill-opacity="0.24"/>
<path d="M8.99,-11.23 L10.87,-10.53 L12.62,-9.71 L14.22,-8.77 L15.65,-7.72 L16.88,-6.58 L17.92,-5.36 L18.73,-4.08 L19.32,-2.75 L19.68,-1.38 L19.8,0 L19.68,1.38 L19.32,2.75 L18.73,4.08 L17.92,5.36 L16.88,6.58 L15.65,7.72 L14.22,8.77 L12.62,9.71 L10.87,10.53 L8.99,11.23" fill="none" stroke="#ff00ff" stroke-width="1.5" stroke-opacity="0.7"/>
<path d="M-8.99,11.23 L-10.87,10.53 L-12.62,9.71 L-14.22,8.77 L-15.65,7.72 L-16.88,6.58 L-17.92,5.36 L-18.73,4.08 L-19.32,2.75 L-19.68,1.38 L-19.8,0 L-19.68,-1.38 L-19.32,-2.75 L-18.73,-4.08 L-17.92,-5.36 L-16.88,-6.58 L-15.65,-7.72 L-14.22,-8.77 L-12.62,-9.71 L-10.87,-10.53 L-8.99,-11.23" fill="none" stroke="#ff00ff" stroke-width="1.5" stroke-opacity="0.7"/>
<circle cx="0" cy="0" r="10" fill="#ff66ff" fill-opacity="0.85"/>
<circle cx="0" cy="0" r="3.28" fill="#110011" fill-opacity="0.95"/>
<circle cx="-2.5" cy="-2.5" r="2" fill="#ffffff" fill-opacity="0.4"/>
<line x1="18" y1="0" x2="82.93" y2="0" stroke="#ff66ff" stroke-width="3.58" stroke-opacity="0.54"/>
<line x1="18" y1="0" x2="58.05" y2="0" stroke="#ffffff" stroke-width="1.29" stroke-opacity="0.21"/>
</svg>
