<svg xmlns="http://www.w3.org/2000/svg" viewBox="-120 -120 240 240">
<path d="M13.01,-7.51 L13.01,7.51 L0,15.02 L-13.01,7.51 L-13.01,-7.51 L0,-15.02 Z" fill="#ff0033" fill-opacity="0.55"/>
<path d="M13.01,-7.51 L13.01,7.51 L0,15.02 L-13.01,7.51 L-13.01,-7.51 L0,-15.02 Z" fill="none" stroke="#ff0033" stroke-width="1" stroke-opacity="0.5"/>
<path d="M37.9,-7.34 L37.9,7.34 L25.2,14.67 L12.5,7.34 L12.5,-7.34 L25.2,-14.67 Z" fill="#ff0033" fill-opacity="0.55"/>
<path d="M37.9,-7.34 L37.9,7.34 L25.2,14.67 L12.5,7.34 L12.5,-7.34 L25.2,-14.67 Z" fill="none" stroke="#ff0033" stroke-width="1" stroke-opacity="0.5"/>
<path d="M24.86,14.74 L24.86,28.9 L12.6,35.98 L0.34,28.9 L0.34,14.74 L12.6,7.67 Z" fill="#ff0033" fill-opacity="0.55"/>
<path d="M24.86,14.74 L24.86,28.9 L12.6,35.98 L0.34,28.9 L0.34,14.74 L12.6,7.67 Z" fill="none" stroke="#ff0033" stroke-width="1" stroke-opacity="0.5"/>
<path d="M-0.82,15.02 L-0.82,28.63 L-12.6,35.43 L-24.38,28.63 L-24.38,15.02 L-12.6,8.22 Z" fill="#ff0033" fill-opacity="0.55"/>
<path d="M-0.82,15.02 L-0.82,28.63 L-12.6,35.43 L-24.38,28.63 L-24.38,15.02 L-12.6,8.22 Z" fill="none" stroke="#ff0033" stroke-width="1" stroke-opacity="0.5"/>
<path d="M-13.81,-6.58 L-13.81,6.58 L-25.2,13.15 L-36.59,6.58 L-36.59,-6.58 L-25.2,-13.15 Z" fill="#ff0033" fill-opacity="0.55"/>
<path d="M-13.81,-6.58 L-13.81,6.58 L-25.2,13.15 L-36.59,6.58 L-36.59,-6.58 L-25.2,-13.15 Z" fill="none" stroke="#ff0033" stroke-width="1" stroke-opacity="0.5"/>
<path d="M-1.42,-28.28 L-1.42,-15.37 L-12.6,-8.92 L-23.78,-15.37 L-23.78,-28.28 L-12.6,-34.73 Z" fill="#ff0033" fill-opacity="0.55"/>
<path d="M-1.42,-28.28 L-1.42,-15.37 L-12.6,-8.92 L-23.78,-15.37 L-23.78,-28.28 L-12.6,-34.73 Z" fill="none" stroke="#ff0033" stroke-width="1" stroke-opacity="0.5"/>
<path d="M23.79,-28.29 L23.79,-15.36 L12.6,-8.9 L1.41,-15.36 L1.41,-28.29 L12.6,-34.75 Z" fill="#ff0033" fill-opacity="0.55"/>
<path d="M23.79,-28.29 L23.79,-15.36 L12.6,-8.9 L1.41,-15.36 L1.41,-28.29 L12.6,-34.75 Z" fill="none" stroke="#ff0033" stroke-width="1" stroke-opacity="0.5"/>
<path d="M61.84,-6.6 L61.84,6.6 L50.4,13.21 L38.96,6.6 L38.96,-6.6 L50.4,-13.21 Z" fill="#ff0033" fill-opacity="0.55"/>
<path d="M61.84,-6.6 L61.84,6.6 L50.4,13.21 L38.96,6.6 L38.96,-6.6 L50.4,-13.21 Z" fill="none" stroke="#ff0033" stroke-width="1" stroke-opacity="0.5"/>
<path d="M55.5,18.36 L55.5,32.04 L43.65,38.89 L31.79,32.04 L31.79,18.36 L43.65,11.51 Z" fill="#ff0033" fill-opacity="0.55"/>
<path d="M55.5,18.36 L55.5,32.04 L43.65,38.89 L31.79,32.04 L31.79,18.36 L43.65,11.51 Z" fill="none" stroke="#ff0033" stroke-width="1" stroke-opacity="0.5"/>
<path d="M37.53,36.53 L37.53,50.77 L25.2,57.89 L12.87,50.77 L12.87,36.53 L25.2,29.41 Z" fill="#ff0033" fill-opacity="0.55"/>
<path d="M37.53,36.53 L37.53,50.77 L25.2,57.89 L12.87,50.77 L12.87,36.53 L25.2,29.41 Z" fill="none" stroke="#ff0033" stroke-width="1" stroke-opacity="0.5"/>
<path d="M12.76,43.03 L12.76,57.77 L0,65.14 L-12.76,57.77 L-12.76,43.03 L0,35.66 Z" fill="#ff0033" fill-opacity="0.55"/>
<path d="M12.76,43.03 L12.76,57.77 L0,65.14 L-12.76,57.77 L-12.76,43.03 L0,35.66 Z" fill="none" stroke="#ff0033" stroke-width="1" stroke-opacity="0.5"/>
<path d="M-12.17,36.12 L-12.17,51.17 L-25.2,58.7 L-38.23,51.17 L-38.23,36.12 L-25.2,28.6 Z" fill="#ff0033" fill-opacity="0.55"/>
<path d="M-12.17,36.12 L-12.17,51.17 L-25.2,58.7 L-38.23,51.17 L-38.23,36.12 L-25.2,28.6 Z" fill="none" stroke="#ff0033" stroke-width="1" stroke-opacity="0.5"/>
<path d="M-30.56,17.65 L-30.56,32.75 L-43.65,40.31 L-56.73,32.75 L-56.73,17.65 L-43.65,10.09 Z" fill="#ff0033" fill-opacity="0.55"/>
<path d="M-30.56,17.65 L-30.56,32.75 L-43.65,40.31 L-56.73,32.75 L-56.73,17.65 L-43.65,10.09 Z" fill="none" stroke="#ff0033" stroke-width="1" stroke-opacity="0.5"/>
<path d="M-37.5,-7.45 L-37.5,7.45 L-50.4,14.89 L-63.3,7.45 L-63.3,-7.45 L-50.4,-14.89 Z" fill="#ff0033" fill-opacity="0.55"/>
<path d="M-37.5,-7.45 L-37.5,7.45 L-50.4,14.89 L-63.3,7.45 L-63.3,-7.45 L-50.4,-14.89 Z" fill="none" stroke="#ff0033" stroke-width="1" stroke-opacity="0.5"/>
<path d="M-31.12,-32.43 L-31.12,-17.97 L-43.65,-10.74 L-56.17,-17.97 L-56.17,-32.43 L-43.65,-39.66 Z" fill="#ff0033" fill-opacity="0.55"/>
<path d="M-31.12,-32.43 L-31.12,-17.97 L-43.65,-10.74 L-56.17,-17.97 L-56.17,-32.43 L-43.65,-39.66 Z" fill="none" stroke="#ff0033" stroke-width="1" stroke-opacity="0.5"/>
<path d="M-13.15,-50.61 L-13.15,-36.69 L-25.2,-29.73 L-37.25,-36.69 L-37.25,-50.61 L-25.2,-57.56 Z" fill="#ff0033" fill-opacity="0.55"/>
<path d="M-13.15,-50.61 L-13.15,-36.69 L-25.2,-29.73 L-37.25,-36.69 L-37.25,-50.61 L-25.2,-57.56 Z" fill="none" stroke="#ff0033" stroke-width="1" stroke-opacity="0.5"/>
<path d="M11.6,-57.1 L11.6,-43.7 L0,-37.01 L-11.6,-43.7 L-11.6,-57.1 L0,-63.79 Z" fill="#ff0033" fill-opacity="0.55"/>
<path d="M11.6,-57.1 L11.6,-43.7 L0,-37.01 L-11.6,-43.7 L-11.6,-57.1 L0,-63.79 Z" fill="none" stroke="#ff0033" stroke-width="1" stroke-opacity="0.5"/>
<path d="M36.47,-50.16 L36.47,-37.14 L25.2,-30.63 L13.93,-37.14 L13.93,-50.16 L25.2,-56.66 Z" fill="#ff0033" fill-opacity="0.55"/>
<path d="M36.47,-50.16 L36.47,-37.14 L25.2,-30.63 L13.93,-37.14 L13.93,-50.16 L25.2,-56.66 Z" fill="none" stroke="#ff0033" stroke-width="1" stroke-opacity="0.5"/>
<path d="M54.8,-31.64 L54.8,-18.76 L43.65,-12.32 L32.49,-18.76 L32.49,-31.64 L43.65,-38.08 Z" fill="#ff0033" fill-opacity="0.55"/>
<path d="M54.8,-31.64 L54.8,-18.76 L43.65,-12.32 L32.49,-18.76 L32.49,-31.64 L43.65,-38.08 Z" fill="none" stroke="#ff0033" stroke-width="1" stroke-opacity="0.5"/>
</svg>
