<svg xmlns="http://www.w3.org/2000/svg" viewBox="-60 -60 120 120">
<path d="M-6.3,13.76 L-10.68,10.38 L-13.49,5.72 L-14.4,0.45 L-13.36,-4.71 L-10.57,-9.07 L-6.46,-12.06 L-1.63,-13.34 L3.25,-12.79 L7.51,-10.55 L10.62,-6.98 L12.19,-2.62 L12.07,1.93 L10.34,6.04 L7.31,9.19 L3.42,10.98 L-0.77,11.23 L-4.68,9.97 L-7.79,7.43 L-9.73,4.02 L-10.28,0.22 L-9.44,-3.43 L-7.37,-6.45 L-4.43,-8.46 L-1.04,-9.25 L2.32,-8.77 L5.19,-7.14 L7.22,-4.65 L8.17,-1.67 L7.98,1.35 L6.74,4.03 L4.68,6 L2.12,7.06 L-0.55,7.1 L-2.98,6.2 L-4.85,4.54 L-5.94,2.39 L-6.15,0.08 L-5.54,-2.07 L-4.23,-3.77 L-2.47,-4.83 L-0.53,-5.16 L1.31,-4.77 L2.8,-3.78 L3.77,-2.38 L4.14,-0.81 L3.91,0.7 L3.18,1.94 L2.12,2.77 L0.91,3.11 L-0.26,2.99" fill="none" stroke="#ff6600" stroke-width="2.93" stroke-opacity="0.83"/>
<path d="M-0.5,17.13 L-6.55,15.53 L-11.53,11.9 L-14.8,6.81 L-15.98,0.98 L-14.98,-4.78 L-12.01,-9.7 L-7.55,-13.14 L-2.24,-14.7 L3.17,-14.24 L7.95,-11.9 L11.48,-8.05 L13.35,-3.28 L13.35,1.73 L11.57,6.31 L8.32,9.85 L4.11,11.93 L-0.48,12.32 L-4.79,11.05 L-8.26,8.37 L-10.48,4.7 L-11.18,0.58 L-10.37,-3.42 L-8.21,-6.76 L-5.07,-9.02 L-1.42,-9.97 L2.22,-9.53 L5.35,-7.85 L7.6,-5.22 L8.7,-2.05 L8.57,1.19 L7.31,4.07 L5.16,6.23 L2.47,7.4 L-0.36,7.51 L-2.94,6.62 L-4.93,4.91 L-6.12,2.68 L-6.39,0.27 L-5.78,-1.97 L-4.46,-3.75 L-2.67,-4.86 L-0.69,-5.22 L1.17,-4.84 L2.68,-3.85 L3.66,-2.47 L4.03,-0.91 L3.81,0.57 L3.1,1.76 L2.07,2.55 L0.92,2.85" fill="none" stroke="#ff9944" stroke-width="0.7" stroke-opacity="0.24"/>
<circle cx="-0.26" cy="2.99" r="6.39" fill="#ff9944" fill-opacity="1"/>
<circle cx="-0.26" cy="2.99" r="2.45" fill="#ffffff" fill-opacity="0.88"/>
</svg>
