<svg xmlns="http://www.w3.org/2000/svg" viewBox="-120 -120 240 240">
<circle cx="35.09" cy="10.85" r="20" fill="#7700ff" fill-opacity="0.44"/>
<path d="M44.13,24.93 L28.48,23.67 L23.37,11.41 L29.08,1.5 L41.13,-0.84 L51.04,10.1 Z" fill="#7700ff" fill-opacity="0.74"/>
<circle cx="35.09" cy="10.85" r="4" fill="#ffffff" fill-opacity="0.22"/>
<circle cx="0.53" cy="37.27" r="20" fill="#7700ff" fill-opacity="0.25"/>
<path d="M9.57,51.35 L-6.09,50.09 L-11.19,37.82 L-5.48,27.91 L6.56,25.57 L16.48,36.52 Z" fill="#7700ff" fill-opacity="0.55"/>
<circle cx="0.53" cy="37.27" r="4" fill="#ffffff" fill-opacity="0.12"/>
<circle cx="-29.47" cy="10.04" r="20" fill="#7700ff" fill-opacity="0.16"/>
<path d="M-20.43,24.11 L-36.08,22.85 L-41.18,10.59 L-35.48,0.68 L-23.43,-1.66 L-13.51,9.28 Z" fill="#7700ff" fill-opacity="0.46"/>
<circle cx="-29.47" cy="10.04" r="4" fill="#ffffff" fill-opacity="0.08"/>
<circle cx="-14.35" cy="-19.17" r="20" fill="#7700ff" fill-opacity="0.33"/>
<path d="M-5.31,-5.1 L-20.96,-6.35 L-26.06,-18.62 L-20.36,-28.53 L-8.31,-30.87 L1.61,-19.92 Z" fill="#7700ff" fill-opacity="0.63"/>
<circle cx="-14.35" cy="-19.17" r="4" fill="#ffffff" fill-opacity="0.17"/>
<circle cx="12.87" cy="-18.25" r="20" fill="#7700ff" fill-opacity="0.45"/>
<path d="M21.91,-4.17 L6.25,-5.43 L1.15,-17.69 L6.86,-27.61 L18.9,-29.94 L28.82,-19 Z" fill="#7700ff" fill-opacity="0.75"/>
<circle cx="12.87" cy="-18.25" r="4" fill="#ffffff" fill-opacity="0.22"/>
</svg>
