<svg xmlns="http://www.w3.org/2000/svg" viewBox="-120 -120 240 240">
<path d="M8.98,13.99 L7.92,15.75 L6.36,16.84 L4.49,17.1 L2.53,16.53 L0.72,15.28 L-0.78,13.62 L-1.95,11.9 L-2.85,10.42 L-3.67,9.41 L-4.62,8.95 L-5.89,8.97 L-7.56,9.24 L-9.61,9.51 L-11.84,9.49 L-13.99,8.98 L-15.75,7.92 L-16.84,6.36 L-17.1,4.49 L-16.53,2.53 L-15.28,0.72 L-13.62,-0.78 L-11.9,-1.95 L-10.42,-2.85 L-9.41,-3.67 L-8.95,-4.62 L-8.97,-5.89 L-9.24,-7.56 L-9.51,-9.61 L-9.49,-11.84 L-8.98,-13.99 L-7.92,-15.75 L-6.36,-16.84 L-4.49,-17.1 L-2.53,-16.53 L-0.72,-15.28 L0.78,-13.62 L1.95,-11.9 L2.85,-10.42 L3.67,-9.41 L4.62,-8.95 L5.89,-8.97 L7.56,-9.24 L9.61,-9.51 L11.84,-9.49 L13.99,-8.98 L15.75,-7.92 L16.84,-6.36 L17.1,-4.49 L16.53,-2.53 L15.28,-0.72 L13.62,0.78 L11.9,1.95 L10.42,2.85 L9.41,3.67 L8.95,4.62 L8.97,5.89 L9.24,7.56 L9.51,9.61 L9.49,11.84 Z" fill="none" stroke="#ff0080" stroke-width="2" stroke-opacity="0.8"/>
<path d="M6.8,-24.48 L8.56,-21.72 L9.91,-19.03 L11.18,-16.89 L12.76,-15.47 L14.92,-14.65 L17.69,-14.06 L20.8,-13.24 L23.76,-11.84 L25.99,-9.71 L27.06,-6.99 L26.79,-4 L25.38,-1.1 L23.3,1.43 L21.16,3.55 L19.52,5.42 L18.66,7.36 L18.55,9.66 L18.84,12.48 L19.02,15.69 L18.6,18.94 L17.27,21.72 L15.01,23.57 L12.08,24.25 L8.89,23.8 L5.84,22.6 L3.17,21.22 L0.88,20.24 L-1.23,20.02 L-3.46,20.62 L-6.04,21.77 L-9.04,22.94 L-12.26,23.54 L-15.32,23.13 L-17.78,21.56 L-19.33,18.98 L-19.88,15.81 L-19.69,12.54 L-19.21,9.57 L-18.97,7.09 L-19.42,5.02 L-20.68,3.09 L-22.58,0.98 L-24.61,-1.51 L-26.18,-4.39 L-26.73,-7.42 L-26,-10.25 L-24.02,-12.51 L-21.18,-14.03 L-18.01,-14.85 L-15.04,-15.31 L-12.6,-15.85 L-10.77,-16.92 L-9.33,-18.72 L-7.91,-21.17 L-6.17,-23.87 L-3.92,-26.25 L-1.2,-27.72 L1.71,-27.89 L4.48,-26.72 Z" fill="none" stroke="#ff0080" stroke-width="2" stroke-opacity="0.8"/>
<path d="M-1,34.12 L-4.87,36.13 L-8.95,36.77 L-12.71,35.56 L-15.7,32.66 L-17.78,28.82 L-19.28,24.97 L-20.82,21.81 L-23.05,19.57 L-26.23,17.91 L-30.05,16.2 L-33.73,13.85 L-36.32,10.64 L-37.15,6.77 L-36.14,2.73 L-33.85,-0.99 L-31.26,-4.21 L-29.3,-7.13 L-28.47,-10.18 L-28.62,-13.76 L-29.05,-17.92 L-28.86,-22.28 L-27.37,-26.13 L-24.44,-28.79 L-20.44,-29.93 L-16.07,-29.81 L-11.98,-29.18 L-8.48,-28.94 L-5.42,-29.75 L-2.4,-31.67 L1,-34.12 L4.87,-36.13 L8.95,-36.77 L12.71,-35.56 L15.7,-32.66 L17.78,-28.82 L19.28,-24.97 L20.82,-21.81 L23.05,-19.57 L26.23,-17.91 L30.05,-16.2 L33.73,-13.85 L36.32,-10.64 L37.15,-6.77 L36.14,-2.73 L33.85,0.99 L31.26,4.21 L29.3,7.13 L28.47,10.18 L28.62,13.76 L29.05,17.92 L28.86,22.28 L27.37,26.13 L24.44,28.79 L20.44,29.93 L16.07,29.81 L11.98,29.18 L8.48,28.94 L5.42,29.75 L2.4,31.67 Z" fill="none" stroke="#ff0080" stroke-width="2" stroke-opacity="0.8"/>
<path d="M29.26,30.13 L25.93,33.04 L22.32,35.58 L18.46,37.73 L14.39,39.46 L10.17,40.75 L5.83,41.59 L1.43,41.98 L-2.99,41.89 L-7.38,41.35 L-11.68,40.34 L-15.86,38.89 L-19.85,37.01 L-23.63,34.72 L-27.15,32.05 L-30.37,29.02 L-33.25,25.66 L-35.76,22.03 L-37.88,18.15 L-39.57,14.07" fill="none" stroke="#ff3399" stroke-width="4" stroke-opacity="0.6"/>
<circle cx="0" cy="0" r="10" fill="#ff0080" fill-opacity="0.5"/>
</svg>
