<svg xmlns="http://www.w3.org/2000/svg" viewBox="-60 -60 120 120">
<circle cx="0" cy="0" r="22" fill="#ffaa33" fill-opacity="0.13"/>
<circle cx="0" cy="0" r="12" fill="#ff8800" fill-opacity="0.3"/>
<circle cx="0" cy="0" r="6" fill="#ffaa33" fill-opacity="0.78"/>
<circle cx="-1.5" cy="-2" r="2.5" fill="#ffffff" fill-opacity="0.48"/>
<path d="M6.45,2.73 L16.13,10.44 L20.04,18.64" fill="none" stroke="#ffaa33" stroke-width="1.2" stroke-opacity="0.45"/>
<circle cx="20.04" cy="18.64" r="1.5" fill="#ffaa33" fill-opacity="0.35"/>
<path d="M2.63,6.49 L6.58,13.19 L10.23,17.06" fill="none" stroke="#ffaa33" stroke-width="1.2" stroke-opacity="0.45"/>
<circle cx="10.23" cy="17.06" r="1.5" fill="#ffaa33" fill-opacity="0.35"/>
<path d="M-2.73,6.45 L-3.36,10.71 L-2.89,13.74" fill="none" stroke="#ffaa33" stroke-width="1.2" stroke-opacity="0.45"/>
<circle cx="-2.89" cy="13.74" r="1.5" fill="#ffaa33" fill-opacity="0.35"/>
<path d="M-6.49,2.63 L-13.52,2.89 L-18.37,0.66" fill="none" stroke="#ffaa33" stroke-width="1.2" stroke-opacity="0.45"/>
<circle cx="-18.37" cy="0.66" r="1.5" fill="#ffaa33" fill-opacity="0.35"/>
<path d="M-6.45,-2.73 L-17.78,-5.89 L-25.8,-6.31" fill="none" stroke="#ffaa33" stroke-width="1.2" stroke-opacity="0.45"/>
<circle cx="-25.8" cy="-6.31" r="1.5" fill="#ffaa33" fill-opacity="0.35"/>
<path d="M-2.63,-6.49 L-8.65,-16.64 L-14.42,-22.34" fill="none" stroke="#ffaa33" stroke-width="1.2" stroke-opacity="0.45"/>
<circle cx="-14.42" cy="-22.34" r="1.5" fill="#ffaa33" fill-opacity="0.35"/>
<path d="M2.73,-6.45 L7.54,-11.63 L12.56,-13.49" fill="none" stroke="#ffaa33" stroke-width="1.2" stroke-opacity="0.45"/>
<circle cx="12.56" cy="-13.49" r="1.5" fill="#ffaa33" fill-opacity="0.35"/>
<path d="M6.49,-2.63 L10.02,-5.06 L11.96,-7.35" fill="none" stroke="#ffaa33" stroke-width="1.2" stroke-opacity="0.45"/>
<circle cx="11.96" cy="-7.35" r="1.5" fill="#ffaa33" fill-opacity="0.35"/>
<circle cx="-9.76" cy="21.33" r="3.5" fill="#ff8800" fill-opacity="0.5"/>
<circle cx="-9.76" cy="21.33" r="8" fill="#ff8800" fill-opacity="0.2"/>
</svg>
