<svg xmlns="http://www.w3.org/2000/svg" viewBox="-60 -60 120 120">
<circle cx="0" cy="0" r="28" fill="#ee3300" fill-opacity="0.08"/>
<circle cx="0" cy="0" r="34" fill="#ee3300" fill-opacity="0.04"/>
<path d="M18.26,2.42 L6.69,5.01 L8.21,-6.02 Z" fill="#ee3300" fill-opacity="0.85"/>
<path d="M13.48,12.96 L1.24,7.67 L9.91,-1.37 Z" fill="#ff6633" fill-opacity="0.85"/>
<path d="M3.37,19.29 L-4.18,6.53 L9.52,4.07 Z" fill="#ee3300" fill-opacity="0.85"/>
<path d="M-7.91,16.54 L-6.8,4.73 L3.22,9.58 Z" fill="#ff6633" fill-opacity="0.85"/>
<path d="M-16.97,9.1 L-8.15,-0.9 L-2.24,10.14 Z" fill="#ee3300" fill-opacity="0.85"/>
<path d="M-19.33,-2.75 L-4.87,-5.98 L-6.76,7.8 Z" fill="#ff6633" fill-opacity="0.85"/>
<path d="M-12.87,-12.28 L-1.99,-7.57 L-9.7,0.45 Z" fill="#ee3300" fill-opacity="0.85"/>
<path d="M-3.46,-19.14 L3.33,-7.66 L-8.99,-5.45 Z" fill="#ff6633" fill-opacity="0.85"/>
<path d="M8.78,-17.99 L7.38,-3.23 L-5.14,-9.3 Z" fill="#ee3300" fill-opacity="0.85"/>
<path d="M15.38,-8.27 L7.54,0.62 L2.29,-9.19 Z" fill="#ff6633" fill-opacity="0.85"/>
<circle cx="0" cy="0" r="7" fill="#110000" fill-opacity="0.92"/>
<circle cx="0" cy="0" r="3.5" fill="#ff6633" fill-opacity="0.55"/>
<circle cx="0" cy="0" r="20" fill="none" stroke="#ff6633" stroke-width="2" stroke-opacity="0.7"/>
<circle cx="0" cy="0" r="25" fill="none" stroke="#ff0000" stroke-width="1.2" stroke-opacity="0.4"/>
<circle cx="0" cy="0" r="30" fill="none" stroke="#ff0000" stroke-width="0.8" stroke-opacity="0.2"/>
</svg>
