<svg xmlns="http://www.w3.org/2000/svg" viewBox="-120 -120 240 240">
<circle cx="0" cy="0" r="91.71" fill="#7733aa" fill-opacity="0.02"/>
<circle cx="0" cy="0" r="82.51" fill="#7733aa" fill-opacity="0.03"/>
<circle cx="0" cy="0" r="72.89" fill="#7733aa" fill-opacity="0.04"/>
<circle cx="0" cy="0" r="62.81" fill="#7733aa" fill-opacity="0.04"/>
<circle cx="0" cy="0" r="52.27" fill="#7733aa" fill-opacity="0.05"/>
<circle cx="0" cy="0" r="41.36" fill="#7733aa" fill-opacity="0.06"/>
<circle cx="0" cy="0" r="21.42" fill="none" stroke="#bb66ee" stroke-width="2.5" stroke-opacity="0.4"/>
<circle cx="0" cy="0" r="24.92" fill="none" stroke="#ddaaff" stroke-width="1" stroke-opacity="0.16"/>
<circle cx="0" cy="0" r="19.92" fill="#030010" fill-opacity="1"/>
<circle cx="4.53" cy="-4.5" r="6.97" fill="#aa66dd" fill-opacity="0.18"/>
<circle cx="1.81" cy="-1.8" r="2.99" fill="#ddaaff" fill-opacity="0.08"/>
<path d="M10.68,38.46 L6.93,39.31 L3.11,39.8 L-0.73,39.91 L-4.57,39.66 L-8.37,39.03 L-12.08,38.05 L-15.69,36.71 L-19.15,35.03 L-22.43,33.02 L-25.5,30.71 L-28.34,28.11 L-30.91,25.25 L-33.2,22.16 L-35.18,18.86 L-36.83,15.39 L-38.14,11.77 L-39.1,8.05 L-39.69,4.25 L-39.92,0.41 L-39.77,-3.43 L-39.25,-7.25 L-38.38,-10.99 L-37.14,-14.63 L-35.56,-18.14 L-33.65,-21.48 L-31.43,-24.61 L-28.91,-27.52 L-26.13,-30.18 L-23.1,-32.55 L-19.86,-34.63 L-16.44,-36.38 L-12.86,-37.79 L-9.16,-38.85 L-5.38,-39.55 L-1.55,-39.89 L2.29,-39.85 L6.12,-39.45 L9.89,-38.67 L13.56,-37.54 L17.11,-36.06 L20.5,-34.25 L23.71,-32.12 L26.69,-29.69 L29.42,-26.98 L31.88,-24.02 L34.04,-20.84 L35.89,-17.47 L37.41,-13.94 L38.57,-10.27 L39.38,-6.51 L39.83,-2.69 L39.9,1.15 L39.6,4.99 L38.94,8.78 L37.92,12.48 L36.54,16.07 L34.82,19.52 L32.78,22.78 L30.44,25.83 L27.81,28.64" fill="none" stroke="#cc77ff" stroke-width="2.5" stroke-opacity="0.58"/>
<path d="M45.75,-35.51 L48.99,-30.89 L51.76,-25.98 L54.04,-20.83 L55.81,-15.47 L57.05,-9.97 L57.75,-4.38 L57.9,1.26 L57.51,6.88 L56.57,12.44 L55.09,17.88 L53.09,23.15 L50.59,28.21 L47.6,32.99 L44.17,37.46 L40.32,41.58 L36.08,45.3 L31.51,48.6 L26.63,51.43 L21.51,53.78 L16.18,55.61 L10.69,56.92 L5.11,57.69 L-0.53,57.92 L-6.16,57.59 L-11.73,56.72 L-17.19,55.31 L-22.48,53.38 L-27.56,50.94 L-32.39,48.02 L-36.9,44.64 L-41.07,40.84 L-44.84,36.65 L-48.2,32.12 L-51.09,27.28 L-53.5,22.18 L-55.4,16.88 L-56.78,11.41 L-57.62,5.83 L-57.92,0.2 L-57.66,-5.43 L-56.86,-11.01 L-55.52,-16.49 L-53.66,-21.81 L-51.28,-26.92 L-48.42,-31.78 L-45.1,-36.34 L-41.35,-40.55 L-37.22,-44.38 L-32.72,-47.79 L-27.92,-50.74 L-22.86,-53.22 L-17.57,-55.19 L-12.12,-56.63 L-6.56,-57.54 L-0.93,-57.91 L4.7,-57.73 L10.29,-57 L15.78,-55.73 L21.13,-53.93 L26.27,-51.62" fill="none" stroke="#cc77ff" stroke-width="2.35" stroke-opacity="0.48"/>
<path d="M-15.77,74.26 L-22.99,72.35 L-29.98,69.75 L-36.69,66.46 L-43.04,62.54 L-48.97,58.01 L-54.43,52.92 L-59.37,47.32 L-63.73,41.25 L-67.47,34.8 L-70.57,28 L-72.97,20.93 L-74.68,13.66 L-75.66,6.26 L-75.91,-1.2 L-75.42,-8.65 L-74.21,-16.02 L-72.28,-23.23 L-69.64,-30.22 L-66.34,-36.91 L-62.39,-43.25 L-57.84,-49.17 L-52.73,-54.61 L-47.11,-59.53 L-41.04,-63.87 L-34.57,-67.59 L-27.76,-70.66 L-20.69,-73.05 L-13.41,-74.72 L-6.01,-75.68 L1.46,-75.9 L8.91,-75.39 L16.27,-74.15 L23.47,-72.2 L30.45,-69.54 L37.14,-66.21 L43.46,-62.25 L49.37,-57.68 L54.79,-52.55 L59.69,-46.91 L64.01,-40.82 L67.71,-34.34 L70.75,-27.52 L73.12,-20.44 L74.77,-13.16 L75.7,-5.75 L75.9,1.71 L75.36,9.16 L74.1,16.52 L72.12,23.72 L69.44,30.69 L66.09,37.36 L62.1,43.67 L57.51,49.56 L52.36,54.97 L46.71,59.85 L40.61,64.15 L34.11,67.82 L27.28,70.85 L20.19,73.18 L12.9,74.81" fill="none" stroke="#cc77ff" stroke-width="2.2" stroke-opacity="0.34"/>
<path d="M17.81,-92.21 L26.87,-89.99 L35.67,-86.88 L44.11,-82.91 L52.12,-78.13 L59.62,-72.57 L66.52,-66.3 L72.77,-59.37 L78.31,-51.85 L83.06,-43.83 L87,-35.37 L90.08,-26.56 L92.27,-17.49 L93.55,-8.25 L93.91,1.07 L93.34,10.38 L91.85,19.59 L89.45,28.61 L86.17,37.35 L82.04,45.71 L77.1,53.63 L71.4,61.01 L64.99,67.8 L57.95,73.91 L50.33,79.3 L42.21,83.9 L33.68,87.67 L24.81,90.58 L15.7,92.6 L6.44,93.7 L-2.89,93.87 L-12.19,93.12 L-21.37,91.45 L-30.34,88.88 L-39.01,85.43 L-47.29,81.14 L-55.11,76.05 L-62.39,70.2 L-69.04,63.67 L-75.02,56.5 L-80.26,48.78 L-84.7,40.58 L-88.31,31.97 L-91.04,23.05 L-92.88,13.9 L-93.8,4.62 L-93.8,-4.71 L-92.87,-13.99 L-91.02,-23.14 L-88.28,-32.06 L-84.66,-40.66 L-80.21,-48.86 L-74.96,-56.58 L-68.98,-63.73 L-62.32,-70.26 L-55.04,-76.1 L-47.21,-81.19 L-38.93,-85.47 L-30.25,-88.91 L-21.28,-91.47 L-12.1,-93.13" fill="none" stroke="#cc77ff" stroke-width="2.05" stroke-opacity="0.28"/>
</svg>
